<?xml version="1.0" encoding="iso-8859-1"?>
<!-- Generator: Adobe Illustrator 19.0.0, SVG Export Plug-In . SVG Version: 6.00 Build 0)  -->
<svg version="1.1" id="Capa_1" xmlns="http://www.w3.org/2000/svg" xmlns:xlink="http://www.w3.org/1999/xlink" x="0px" y="0px"
	 viewBox="0 0 512.002 512.002" style="enable-background:new 0 0 512.002 512.002;" xml:space="preserve">
<g>
	<g transform="translate(0 1)">
		<path style="fill:#00838F;" d="M503.468,255.001c0.041,65.645-26.019,128.612-72.436,175.03s-109.385,72.477-175.03,72.436
			c-4.267,0-8.533-0.085-12.8-0.341C111.695,495.322,8.552,386.723,8.53,255.041C8.507,123.36,111.612,14.725,243.116,7.876h0.171
			c4.181-0.256,8.448-0.341,12.715-0.341c65.636-0.011,128.586,26.058,174.997,72.469
			C477.41,126.415,503.478,189.365,503.468,255.001z"/>
		<path style="fill:#00BCD4;" d="M477.868,255.001c0.021,29.3-5.18,58.37-15.36,85.845c-1.45,4.011-2.987,7.936-4.693,11.861
			c-37.186,86.624-120.385,144.572-214.529,149.419h-0.598c-2.56-0.171-5.119-0.341-7.679-0.512
			c-2.56-0.256-5.035-0.512-7.595-0.768c-1.793-0.256-3.584-0.427-5.461-0.768c-1.792-0.171-3.669-0.427-5.461-0.768
			c-2.816-0.427-5.632-0.939-8.448-1.451c-3.841-0.768-7.68-1.621-11.435-2.645c-1.963-0.427-3.925-0.939-5.889-1.451
			c-0.853-0.256-1.792-0.512-2.645-0.768c-4.694-1.28-9.388-2.816-13.91-4.352c-9.06-3.197-17.921-6.93-26.537-11.179
			c-2.133-0.939-4.267-2.048-6.4-3.157c-3.158-1.707-6.315-3.413-9.388-5.205c-2.048-1.195-4.096-2.389-6.059-3.669
			c-3.072-1.877-6.059-3.84-8.96-5.803c-1.963-1.28-3.925-2.645-5.802-4.096c-1.621-1.195-3.243-2.304-4.779-3.584
			c-1.45-1.024-2.901-2.133-4.267-3.243c-1.535-1.195-2.987-2.389-4.523-3.67c-10.062-8.442-19.449-17.657-28.074-27.562
			c-1.878-2.133-3.67-4.267-5.461-6.485c-1.706-2.048-3.328-4.181-4.95-6.229c-12.192-16.06-22.392-33.539-30.378-52.053
			C-3.322,278.328,3.141,193.048,45.894,124.327S162.292,12.121,243.116,7.876h0.171C374.772,14.726,477.87,123.336,477.868,255.001
			z"/>
		<path style="fill:#FDD834;" d="M384.001,297.668c0.018,4.905-0.267,9.807-0.853,14.677H128.854
			c-0.587-4.87-0.872-9.772-0.853-14.677c0.054-65.614,49.677-120.579,114.944-127.317c0.171-0.085,0.341,0,0.513,0
			c4.163-0.487,8.352-0.715,12.543-0.683C326.683,169.693,383.975,226.986,384.001,297.668z"/>
		<path style="fill:#FFEB3A;" d="M358.401,297.668c0.018,4.905-0.267,9.807-0.853,14.677H128.854
			c-0.587-4.87-0.872-9.772-0.853-14.677c0.054-65.614,49.677-120.579,114.944-127.317c0.171-0.085,0.341,0,0.513,0
			C308.724,177.089,358.347,232.054,358.401,297.668z"/>
		<path style="fill:#FFB301;" d="M483.414,352.708c-39.072,90.875-128.495,149.763-227.413,149.76
			c-4.267,0-8.533-0.085-12.715-0.341c94.143-4.847,177.342-62.795,214.528-149.419c1.707-3.925,3.243-7.851,4.693-11.861
			C469.932,344.601,476.844,348.612,483.414,352.708z"/>
		<path style="fill:#FEC108;" d="M462.508,340.846c-1.45,4.011-2.987,7.936-4.693,11.861
			c-37.186,86.624-120.385,144.572-214.529,149.419h-0.598c-2.56-0.171-5.119-0.341-7.679-0.512
			c-2.56-0.256-5.035-0.512-7.595-0.768c-1.793-0.256-3.584-0.427-5.461-0.768c-1.792-0.171-3.669-0.427-5.461-0.768
			c-2.816-0.427-5.632-0.939-8.448-1.451c-3.841-0.768-7.68-1.621-11.435-2.645c-1.963-0.427-3.925-0.939-5.889-1.451
			c-0.853-0.256-1.792-0.512-2.645-0.768c-4.694-1.28-9.388-2.816-13.91-4.352c-9.06-3.197-17.921-6.93-26.537-11.179
			c-2.133-0.939-4.267-2.048-6.4-3.157c-3.158-1.707-6.315-3.413-9.388-5.205c-2.048-1.195-4.096-2.389-6.059-3.669
			c-3.072-1.877-6.059-3.84-8.96-5.803c-1.963-1.28-3.925-2.645-5.802-4.096c-1.621-1.195-3.243-2.304-4.779-3.584
			c-1.45-1.024-2.901-2.133-4.267-3.243c-1.535-1.195-2.987-2.389-4.523-3.67c-10.062-8.442-19.449-17.657-28.074-27.562
			c-1.878-2.133-3.67-4.267-5.461-6.485c-1.706-2.048-3.328-4.181-4.95-6.229c-12.192-16.06-22.392-33.539-30.378-52.053
			c53.163-33.536,135.253-55.04,227.413-55.04C336.812,297.668,409.857,314.222,462.508,340.846z"/>
	</g>
	<g>
		<path d="M256.001,0.001C169.689-0.039,89.174,43.437,41.864,115.627s-55.038,163.367-20.553,242.49
			c0.029,0.046,0.027,0.1,0.056,0.146l0.02,0.021c40.658,93.35,132.79,153.715,234.61,153.717
			c101.82,0.002,193.954-60.36,234.614-153.709l0.023-0.028c0.029-0.046,0.027-0.1,0.056-0.146
			c34.484-79.123,26.757-170.3-20.553-242.49S342.312-0.039,256.001,0.001z M256.001,494.934
			c-92.768-0.094-177.116-53.816-216.426-137.843c54.025-31.744,132.284-49.89,216.426-49.89s162.401,18.146,216.426,49.89
			C433.117,441.118,348.768,494.84,256.001,494.934z M136.534,298.668c0-65.98,53.487-119.467,119.467-119.467
			s119.467,53.487,119.467,119.467c0,1.408-0.071,2.744-0.115,4.107c-39.21-8.516-79.228-12.754-119.352-12.641
			c-40.124-0.114-80.142,4.125-119.352,12.641C136.605,301.412,136.534,300.076,136.534,298.668z M479.159,341.243
			c-27.312-15.241-56.52-26.8-86.865-34.378c0.157-2.659,0.237-5.391,0.24-8.198c0-75.405-61.128-136.533-136.533-136.533
			s-136.533,61.128-136.533,136.533c0,2.802,0.08,5.535,0.24,8.198c-30.345,7.577-59.553,19.137-86.865,34.377
			C-1.357,251.724,21.242,150.433,90.248,83.94S261.314-1.38,349.502,36.115s145.44,124.057,145.432,219.886
			C494.947,285.142,489.599,314.037,479.159,341.243z"/>
		<path d="M264.534,204.801c0.001-2.263-0.898-4.434-2.499-6.035s-3.771-2.499-6.035-2.499
			c-34.633-0.029-66.923,17.487-85.783,46.533c-1.679,2.552-1.865,5.806-0.489,8.532c1.376,2.727,4.105,4.51,7.154,4.675
			c3.05,0.165,5.955-1.312,7.618-3.874c15.72-24.212,42.632-38.817,71.5-38.8c2.263,0.001,4.434-0.898,6.035-2.499
			C263.636,209.235,264.535,207.064,264.534,204.801z"/>
		<path d="M256.001,93.868c-2.263-0.001-4.434,0.898-6.035,2.499c-1.6,1.6-2.499,3.771-2.499,6.035v34.133
			c0,4.713,3.82,8.533,8.533,8.533s8.533-3.821,8.533-8.533v-34.133c0.001-2.263-0.898-4.434-2.499-6.035
			S258.264,93.867,256.001,93.868z"/>
		<path d="M196.893,111.322c-1.035-2.873-3.527-4.974-6.535-5.508c-3.007-0.534-6.07,0.581-8.031,2.922
			c-1.961,2.341-2.521,5.553-1.467,8.419l11.675,32.075c1.225,3.373,4.429,5.619,8.017,5.621c0.995,0,1.983-0.176,2.917-0.521
			c2.128-0.771,3.861-2.358,4.818-4.409c0.957-2.051,1.058-4.399,0.282-6.525L196.893,111.322z"/>
		<path d="M136.376,142.834c-1.956-2.345-5.016-3.466-8.024-2.938c-3.008,0.527-5.504,2.623-6.545,5.493
			c-1.041,2.871-0.468,6.079,1.502,8.412l21.942,26.15c1.956,2.345,5.016,3.466,8.024,2.938c3.008-0.527,5.504-2.623,6.545-5.493
			c1.041-2.871,0.468-6.079-1.502-8.412L136.376,142.834z"/>
		<path d="M119.859,210.209l-29.567-17.067c-2.641-1.526-5.896-1.527-8.537-0.002s-4.269,4.344-4.268,7.394
			c0.001,3.05,1.629,5.868,4.272,7.392l29.567,17.067c2.641,1.526,5.896,1.527,8.537,0.002c2.642-1.525,4.269-4.344,4.268-7.394
			C124.13,214.551,122.502,211.733,119.859,210.209z"/>
		<path d="M97.818,262.109l-33.617-5.929c-4.641-0.819-9.068,2.279-9.887,6.921c-0.819,4.641,2.279,9.068,6.921,9.887l33.617,5.929
			c0.493,0.086,0.992,0.129,1.492,0.129c4.422-0.006,8.106-3.389,8.49-7.794C105.216,266.848,102.172,262.88,97.818,262.109z"/>
		<path d="M407.268,271.997c0.717,4.075,4.255,7.047,8.392,7.05c0.5,0,0.999-0.043,1.492-0.129l33.617-5.929
			c4.641-0.819,7.74-5.246,6.921-9.887c-0.819-4.641-5.246-7.74-9.887-6.921l-33.617,5.929c-2.229,0.393-4.21,1.656-5.508,3.51
			S406.872,269.768,407.268,271.997z"/>
		<path d="M392.143,210.209c-4.08,2.358-5.477,7.575-3.121,11.656s7.573,5.481,11.655,3.127l29.567-17.067
			c4.08-2.358,5.477-7.575,3.121-11.656c-2.356-4.081-7.573-5.481-11.655-3.127L392.143,210.209z"/>
		<path d="M387.643,141.78c-1.733-1.455-3.973-2.162-6.227-1.964c-2.254,0.198-4.337,1.284-5.79,3.018l-21.942,26.15
			c-1.97,2.333-2.543,5.541-1.502,8.412c1.041,2.871,3.537,4.966,6.545,5.493s6.068-0.593,8.024-2.938l21.942-26.15
			c1.455-1.733,2.163-3.973,1.966-6.228C390.461,145.318,389.376,143.235,387.643,141.78z"/>
		<path d="M326.042,106.222c-4.427-1.609-9.321,0.674-10.933,5.1l-11.675,32.075c-0.776,2.126-0.675,4.473,0.282,6.525
			c0.957,2.051,2.69,3.637,4.818,4.409c0.934,0.344,1.921,0.521,2.917,0.521c3.588-0.002,6.792-2.248,8.017-5.621l11.675-32.075
			c0.776-2.126,0.675-4.474-0.282-6.525C329.904,108.579,328.17,106.993,326.042,106.222z"/>
	</g>
</g>
<g>
</g>
<g>
</g>
<g>
</g>
<g>
</g>
<g>
</g>
<g>
</g>
<g>
</g>
<g>
</g>
<g>
</g>
<g>
</g>
<g>
</g>
<g>
</g>
<g>
</g>
<g>
</g>
<g>
</g>
</svg>
